<svg width="35" height="35" viewBox="0 0 35 35" fill="none" xmlns="http://www.w3.org/2000/svg">
<g id="bag_buy_cart_market_shop_shopping_tote_icon_123191 1" clip-path="url(#clip0_29_16)">
<g id="Layer 2">
<path id="Vector" d="M25.725 31.7188H9.31871C8.40596 31.7186 7.50532 31.51 6.68547 31.1088C5.86562 30.7076 5.14822 30.1245 4.588 29.4039C4.02777 28.6833 3.63952 27.8443 3.45285 26.9508C3.26619 26.0574 3.28604 25.1331 3.51089 24.2485L6.83589 10.675C6.89578 10.4324 7.03698 10.2175 7.23598 10.0663C7.43499 9.91504 7.67979 9.83652 7.92964 9.8438H26.25C26.4912 9.83275 26.7293 9.90187 26.9272 10.0404C27.1251 10.1789 27.2715 10.379 27.3437 10.6094L31.4781 23.9094C31.7607 24.8128 31.8258 25.7701 31.6681 26.7034C31.5103 27.6367 31.1341 28.5195 30.5703 29.2797C30.0156 30.0432 29.2865 30.6629 28.4436 31.0872C27.6007 31.5115 26.6686 31.7281 25.725 31.7188ZM8.74996 12.0313L5.58902 24.7735C5.44826 25.3357 5.43698 25.9225 5.55603 26.4897C5.67508 27.0568 5.92136 27.5896 6.27628 28.0477C6.63121 28.5059 7.08553 28.8774 7.60497 29.1344C8.12442 29.3914 8.69543 29.5271 9.27496 29.5313H25.6812C26.2764 29.5323 26.8634 29.392 27.3939 29.122C27.9244 28.852 28.3832 28.46 28.7328 27.9782C29.0924 27.4936 29.3323 26.9309 29.4331 26.336C29.5338 25.741 29.4925 25.1307 29.3125 24.5547L25.4625 12.0313H8.74996Z" fill="#FFEEEE"/>
<path id="Vector_2" d="M21.875 18.5938C21.5849 18.5938 21.3067 18.4785 21.1016 18.2734C20.8965 18.0683 20.7812 17.7901 20.7812 17.5V8.75C20.7812 7.87976 20.4355 7.04516 19.8202 6.42981C19.2048 5.81445 18.3702 5.46875 17.5 5.46875C16.6298 5.46875 15.7952 5.81445 15.1798 6.42981C14.5645 7.04516 14.2188 7.87976 14.2188 8.75V17.5C14.2188 17.7901 14.1035 18.0683 13.8984 18.2734C13.6933 18.4785 13.4151 18.5938 13.125 18.5938C12.8349 18.5938 12.5567 18.4785 12.3516 18.2734C12.1465 18.0683 12.0312 17.7901 12.0312 17.5V8.75C12.0313 7.2996 12.6074 5.9086 13.633 4.88301C14.6586 3.85742 16.0496 3.28125 17.5 3.28125C18.9504 3.28125 20.3414 3.85742 21.367 4.88301C22.3926 5.9086 22.9688 7.2996 22.9688 8.75V17.5C22.9688 17.7901 22.8535 18.0683 22.6484 18.2734C22.4433 18.4785 22.1651 18.5938 21.875 18.5938Z" fill="#FFEEEE"/>
</g>
</g>
<defs>
<clipPath id="clip0_29_16">
<rect width="35" height="35" fill="white"/>
</clipPath>
</defs>
</svg>
